<svg width="99" height="28" viewBox="0 0 99 28" fill="none" xmlns="http://www.w3.org/2000/svg">
<g clip-path="url(#clip0_144_1874)">
<path d="M8.82176 22.9576C9.28641 21.6179 8.42588 20.8275 8.0049 20.4855C6.01619 18.8699 2.68836 17.2471 1.69029 15.8289C1.56478 16.2268 1.47371 16.6339 1.41801 17.0462C1.39338 17.2467 1.39338 17.4494 1.41801 17.6499C1.42685 17.718 1.4402 17.7854 1.45797 17.8518C1.60108 18.3957 2.01555 18.7788 2.78036 19.228C4.47169 20.2301 7.05608 21.5286 7.33487 22.8683" fill="#C49F69"/>
<path d="M10.959 21.9751C11.7787 20.9177 10.3476 18.5126 8.96755 17.4838C6.79484 15.8628 4.82565 14.6768 2.68826 13.0174C2.11913 12.582 1.65444 12.0337 1.3259 11.4099C0.532274 13.2139 0.907712 14.4821 2.49589 15.6413C4.26156 16.931 6.09694 18.142 7.86354 19.4334C9.63015 20.7248 10.1106 21.7635 8.17857 24.2972C8.17857 24.2972 10.421 22.6682 10.959 21.9751Z" fill="#C49F69"/>
<path d="M15.1657 24.0238C15.8088 23.6874 16.4512 23.3499 17.0931 23.0111C17.0931 23.0111 18.5976 22.1769 19.4266 21.1534C19.9526 20.5042 19.946 19.695 19.9442 19.2422C19.9321 16.5397 20.1849 16.7041 18.5437 16.2566C14.1667 14.8116 9.77576 13.4077 5.38945 11.9877C4.61255 11.7358 3.83287 11.4884 3.0727 11.1964C2.16291 10.8463 1.66016 10.1541 1.63414 9.23158C1.5728 7.0051 1.55143 4.77863 1.557 2.55394C1.557 2.35656 1.83579 2.05113 2.04768 1.97879C5.5688 0.787402 9.19308 0.326567 12.9177 0.480178C15.6974 0.590001 18.4466 1.07956 21.0826 1.93413C21.5017 2.07077 21.6931 2.25743 21.6903 2.70665C21.6708 6.10665 21.6755 9.50576 21.669 12.9058C21.669 13.0844 21.7015 13.5479 21.6104 13.5398L17.8003 12.3092C17.8086 12.2368 17.817 11.684 17.8254 11.6152C18.1162 11.5358 18.5632 11.4884 18.8597 11.4366C19.5548 11.3143 19.8392 11.3303 19.8587 10.6811C19.9061 9.18692 19.9349 7.78566 19.9349 6.26205C19.9349 3.83373 20.2137 3.53544 19.4702 3.27555C16.9026 2.3771 14.3758 2.13418 11.85 2.13418C9.32412 2.13418 7.29824 2.3771 4.01315 3.10587C3.2344 3.27823 3.30967 3.59081 3.30967 5.93786C3.30967 9.1762 3.14797 9.39055 4.37558 9.82727C5.277 10.1479 9.33899 11.4822 9.33899 11.4822C12.7653 12.5985 16.1945 13.706 19.6124 14.8464C21.2341 15.3885 21.5965 15.8726 21.6327 17.5204C21.6578 18.6724 21.6039 18.9332 21.5537 20.0853C21.5147 20.9972 21.064 21.7456 20.4321 22.4002C18.7528 24.1382 16.6219 25.2358 14.4557 26.2816C13.6658 26.662 12.9029 27.1175 12.099 27.4676C11.862 27.5712 11.4801 27.5774 11.2701 27.473C8.82136 26.2619 6.41354 25.0473 4.08192 23.5755C2.96676 22.8682 0.907421 22.0644 1.99099 19.5798C2.22455 19.7209 2.45564 19.862 2.68425 20.0031C4.24826 20.9695 5.72771 21.9376 7.29545 22.8878L7.33448 22.8682C9.37895 22.9575 11.0433 22.2582 11.5163 21.4473C11.5544 21.2687 11.5851 21.1168 11.6306 20.9614L11.4281 20.9168C11.5284 20.6408 11.6279 20.3657 11.7254 20.0942L11.2403 19.9415C11.4262 19.7683 11.5925 19.6111 11.7905 19.4262L11.363 19.3548C11.7084 19.161 11.9983 18.8879 12.2068 18.5599L11.7208 18.4313L12.5841 17.7052C11.9745 17.5141 11.494 17.264 11.2524 16.7335C11.137 16.5097 11.0936 16.2578 11.1279 16.0101C11.4597 16.2995 11.7961 16.5246 12.2068 16.5701L11.771 15.6181L11.8323 15.5815C12.3341 16.028 12.9856 16.1352 13.6091 16.3013C13.769 16.3433 13.9158 16.3861 13.9325 16.5692C14.3581 16.546 14.7745 16.4897 15.1852 16.5129C15.5331 16.5468 15.8759 16.6178 16.2075 16.7246C16.4463 16.7907 16.5467 16.9863 16.556 17.2212C16.556 17.2899 16.556 17.3578 16.556 17.4284C17.2585 17.5954 17.6042 18.0741 17.7501 18.7082C17.8495 19.1395 17.6572 19.4986 17.2278 19.7424C17.2501 19.3047 17.1498 18.9305 16.661 18.7984C16.5132 18.7582 16.3413 18.7707 16.2753 18.9609C16.7604 19.2753 16.8896 19.4342 16.857 19.6673L16.292 19.319L16.6526 19.9612L16.5987 19.9951C16.4509 19.8883 16.2956 19.7913 16.134 19.7049C15.8125 19.5575 15.4761 19.4619 15.1118 19.5539C15.0633 19.5656 15.0139 19.5734 14.9641 19.5771C14.6295 19.6066 14.6165 19.6173 14.6314 19.9397C14.6555 20.4488 14.8405 20.5953 15.0849 21.0329C15.3293 21.4705 15.7586 22.6896 15.5123 23.296C15.4105 23.5444 15.2948 23.7874 15.1657 24.0238Z" fill="#C49F69"/>
<path d="M12.9322 9.39056L14.026 9.91837C14.1015 9.95493 14.1849 9.9739 14.2695 9.97375H16.4524C16.5369 9.9739 16.6204 9.95493 16.6959 9.91837L17.7878 9.39413C17.8783 9.35045 17.9543 9.28348 18.0075 9.20069C18.0606 9.1179 18.0888 9.02254 18.0889 8.92526V7.32841C18.0907 6.76431 17.9281 6.21099 17.6195 5.73115C17.3108 5.2513 16.8686 4.8641 16.3427 4.61341L15.6049 4.25618C15.5291 4.21978 15.4456 4.20084 15.3609 4.20084C15.2762 4.20084 15.1927 4.21978 15.117 4.25618L14.3791 4.61341C13.8531 4.86398 13.4107 5.25113 13.1019 5.73098C12.7931 6.21083 12.6303 6.76421 12.632 7.32841V8.92168C12.632 9.01888 12.6601 9.11417 12.7131 9.19695C12.7661 9.27973 12.8419 9.34675 12.9322 9.39056Z" fill="#C49F69"/>
<path d="M15.3594 9.97006V14.2783" stroke="#C49F69" stroke-width="17" stroke-miterlimit="10"/>
<path d="M5.77607 8.7654L6.86986 9.29322C6.94538 9.32978 7.02878 9.34874 7.11334 9.34859H9.29441C9.37896 9.34874 9.46237 9.32978 9.53789 9.29322L10.6298 8.76898C10.7203 8.7253 10.7963 8.65833 10.8495 8.57554C10.9027 8.49275 10.9308 8.39739 10.9309 8.3001V6.70326C10.9327 6.13915 10.7701 5.58584 10.4615 5.106C10.1529 4.62615 9.71058 4.23895 9.18475 3.98826L8.44689 3.63102C8.37114 3.59463 8.28763 3.57568 8.20294 3.57568C8.11826 3.57568 8.03475 3.59463 7.959 3.63102L7.22114 3.98826C6.69548 4.23908 6.2534 4.62633 5.94496 5.10617C5.63651 5.586 5.47403 6.13925 5.47591 6.70326V8.29653C5.47589 8.39372 5.50394 8.48902 5.55694 8.5718C5.60993 8.65458 5.68579 8.7216 5.77607 8.7654Z" fill="#C49F69"/>
<path d="M8.20337 11.8366V9.34485" stroke="#C49F69" stroke-width="17" stroke-miterlimit="10"/>
<path d="M36.9169 11.1023C36.9169 10.286 36.7271 9.60579 36.3473 9.06159C35.9675 8.5174 35.3913 8.10896 34.6188 7.83627C33.8462 7.56477 32.8807 7.42873 31.7221 7.42813H26.9725V8.32122L28.0579 8.48912C28.3153 8.53824 28.4863 8.61594 28.5699 8.72043C28.6536 8.82493 28.6954 9.03927 28.6954 9.36078V18.4167C28.6954 18.7632 28.6567 18.9984 28.5792 19.1223C28.5018 19.2461 28.341 19.3265 28.0969 19.3634L26.9771 19.5304V20.4235H32.6728V19.5304L31.3216 19.3813C31.0385 19.3443 30.8486 19.264 30.7519 19.1401C30.6553 19.0163 30.607 18.7877 30.607 18.4542V15.1873C30.7981 15.2223 30.9916 15.2438 31.1859 15.2516C31.4697 15.2701 31.7853 15.2793 32.1329 15.2793C32.799 15.2879 33.4617 15.1877 34.0928 14.9828C34.6505 14.8011 35.1631 14.5104 35.5983 14.129C36.0169 13.7577 36.3494 13.3058 36.574 12.8028C36.8092 12.2647 36.9259 11.6858 36.9169 11.1023ZM34.0584 13.4904C33.5306 14.0162 32.7518 14.279 31.7221 14.279C31.4907 14.279 31.2714 14.2701 31.066 14.2513C30.9098 14.2399 30.7546 14.2184 30.6014 14.187V8.43018H31.5892C32.7218 8.43018 33.5488 8.6469 34.0705 9.08035C34.5921 9.5138 34.8526 10.2065 34.852 11.1586C34.8508 12.1856 34.5862 12.9629 34.0584 13.4904Z" fill="#082E82"/>
<path d="M59.4983 8.13254C58.4488 7.66278 57.1583 7.4276 55.6269 7.427H50.0826V8.32009L51.1662 8.48978C51.4236 8.5389 51.5946 8.6166 51.6783 8.72109C51.7619 8.82558 51.8037 9.03992 51.8037 9.36144V18.4174C51.8037 18.7639 51.765 18.9991 51.6875 19.1229C51.6101 19.2468 51.4493 19.3271 51.2052 19.3641C50.9395 19.4034 50.6709 19.3882 50.2676 19.3882C49.8345 19.3882 49.3522 19.3453 49.3522 19.3453C49.0821 19.2858 48.9049 19.1929 48.8206 19.0667C48.6933 18.8538 48.5866 18.6302 48.5019 18.3986L44.4669 7.42879H42.4224L38.3455 18.3772C38.1913 18.7612 38.0624 19.0119 37.959 19.1292C37.8247 19.2631 37.6484 19.351 37.4571 19.3792L36.5278 19.5284V20.4215H41.2004V19.5462L40.1001 19.398C39.8163 19.3385 39.6425 19.2334 39.5787 19.0827C39.5149 18.9321 39.5406 18.7032 39.6559 18.3959L40.4671 16.132H45.6415L46.4723 18.4701C46.6005 18.7797 46.6359 19.0024 46.5782 19.1381C46.5197 19.2747 46.3626 19.3614 46.1052 19.398L44.9854 19.5284V20.4215H55.086C56.2836 20.4215 57.352 20.267 58.2912 19.958C59.1835 19.6753 60.0009 19.2086 60.686 18.5906C61.349 17.9814 61.8605 17.2362 62.1822 16.4106C62.5229 15.5568 62.6936 14.592 62.6942 13.5161C62.6942 12.2062 62.4238 11.0988 61.8829 10.1938C61.3421 9.2888 60.5472 8.60171 59.4983 8.13254ZM40.8556 15.0745L43.0571 8.96937H43.1342L45.2772 15.0745H40.8556ZM60.2994 16.2159C60.1129 16.8818 59.7644 17.4955 59.2827 18.0066C58.8085 18.487 58.2178 18.8472 57.5635 19.055C56.8746 19.2837 56.054 19.398 55.1018 19.398C54.8577 19.398 54.6003 19.3888 54.3296 19.3703C54.1225 19.3587 53.9163 19.3369 53.7116 19.3051V8.43084H55.4726C56.5921 8.43084 57.535 8.6288 58.3014 9.02474C59.0633 9.417 59.6728 10.0354 60.0392 10.7877C60.4314 11.5671 60.6277 12.526 60.6284 13.6643C60.6284 14.6414 60.5187 15.4919 60.2994 16.2159Z" fill="#082E82"/>
<path d="M63.6978 7.42813V8.32122L64.7795 8.48912C65.0369 8.52574 65.2069 8.59987 65.2915 8.7115C65.3761 8.82314 65.416 9.03659 65.416 9.3581V18.414C65.416 18.7606 65.3773 18.9957 65.2999 19.1196C65.2227 19.2428 65.061 19.3232 64.8166 19.3607L63.7015 19.5277V20.4208H69.3981V19.5277L68.046 19.3786C67.7672 19.3545 67.5729 19.2768 67.4763 19.1473C67.3796 19.0178 67.3323 18.7856 67.3323 18.4516V14.7586H69.0115C69.4755 14.7586 69.82 14.7955 70.0449 14.8694C70.2698 14.9435 70.4315 15.1176 70.5272 15.3891C70.6583 15.8197 70.7516 16.26 70.806 16.7056L71.6944 16.5573V11.9722L70.806 12.0865C70.7379 12.4423 70.6403 12.7923 70.5142 13.1332C70.4786 13.2322 70.4171 13.3208 70.3358 13.3905C70.2545 13.4602 70.1559 13.5088 70.0495 13.5315C69.7056 13.5913 69.3562 13.6162 69.0069 13.6056H67.3285V8.42571H69.3368C69.9563 8.42571 70.4454 8.49061 70.8041 8.62041C71.1919 8.77109 71.5186 9.03834 71.7353 9.38221C71.9924 9.75969 72.2628 10.3253 72.5466 11.0791L73.5502 10.7451L72.8504 7.42813H63.6978Z" fill="#082E82"/>
<path d="M97.6238 19.342C97.3537 19.2824 97.1768 19.1895 97.0932 19.0633C96.9654 18.8507 96.8587 18.627 96.7744 18.3953L92.7375 7.42813H90.6931L86.6181 18.3765C86.4632 18.7606 86.3343 19.0112 86.2315 19.1285C86.0734 19.2865 85.8596 19.382 85.6321 19.3964C85.3951 19.3964 85.3059 19.2911 85.1795 19.1955C84.9438 19.0061 84.7558 18.768 84.6294 18.4989C84.4745 18.1958 84.3007 17.8341 84.108 17.4138L83.4315 15.8955C83.2258 15.4133 82.9718 15.042 82.6695 14.7818C82.3265 14.5022 81.9195 14.3045 81.4818 14.2049V14.1495C81.947 14.0664 82.3963 13.9158 82.8144 13.703C83.2138 13.5018 83.5758 13.2387 83.8859 12.9242C84.1805 12.6258 84.4189 12.2803 84.5903 11.9034C84.7557 11.5407 84.8411 11.1491 84.8413 10.7531C84.8413 10.0226 84.6449 9.41317 84.2521 8.92495C83.8593 8.43673 83.2769 8.0655 82.505 7.81127C81.733 7.55763 80.7805 7.43081 79.6474 7.43081H74.802V8.3239L75.8819 8.48912C76.1393 8.53824 76.3103 8.61594 76.3939 8.72043C76.4775 8.82492 76.5194 9.03927 76.5194 9.36078V18.4167C76.5194 18.7632 76.4806 18.9984 76.4032 19.1223C76.3257 19.2461 76.165 19.3265 75.9209 19.3634L74.8057 19.5304V20.4235H80.5014V19.5304L79.1502 19.3813C78.8671 19.3443 78.6772 19.264 78.5805 19.1401C78.4839 19.0163 78.4356 18.7877 78.4356 18.4542V14.5175C78.7233 14.478 79.0138 14.4592 79.3045 14.4612C79.6095 14.4508 79.914 14.495 80.2022 14.5916C80.4479 14.6947 80.6562 14.8657 80.8006 15.0828C81.0267 15.4258 81.216 15.79 81.3657 16.1697L82.202 18.1247C82.4017 18.6278 82.6608 19.1073 82.9743 19.5536C83.1937 19.869 83.4969 20.1221 83.8525 20.2869C84.2282 20.4379 84.633 20.5106 85.0401 20.5003C86.5112 20.4994 88.6486 20.4565 89.485 20.4565C89.485 20.1886 89.4766 19.5456 89.4766 19.5456L88.3754 19.3973C88.0929 19.3378 87.9191 19.2327 87.854 19.0821C87.789 18.9314 87.815 18.7025 87.9321 18.3953L88.7415 16.1313H93.9168L94.7467 18.4694C94.8755 18.779 94.9112 19.0017 94.8536 19.1374C94.7959 19.2732 94.6383 19.3598 94.3805 19.3973L93.2598 19.5277V20.4208H98.4156V19.4902L97.6238 19.342ZM81.2792 13.2555C80.796 13.4651 80.2074 13.5702 79.5136 13.5708C79.3853 13.5708 79.2348 13.5708 79.0601 13.561C78.8854 13.5512 78.6772 13.5458 78.4328 13.5333V8.43018H79.5136C80.6467 8.43018 81.4738 8.62517 81.9948 9.01515C82.5158 9.40514 82.7767 10.0205 82.7773 10.8612C82.792 11.3757 82.6575 11.8841 82.3888 12.3294C82.1268 12.7404 81.7394 13.0638 81.2792 13.2555ZM89.1281 15.0739L91.3296 8.96871H91.4068L93.5497 15.0739H89.1281Z" fill="#082E82"/>
</g>
<defs>
<clipPath id="clip0_144_1874">
<rect width="98.7368" height="28" fill="white"/>
</clipPath>
</defs>
</svg>
